<svg xmlns="http://www.w3.org/2000/svg" viewBox="0 0 24 24" width="24" height="24">
  <path fill="#EA4335" d="M12.19 2.38a9.344 9.344 0 0 0-9.234 6.893c.053-.02-.055.013 0 0-3.875 2.551-3.922 8.11-.247 10.941l.006-.007-.007.03a9.445 9.445 0 0 0 9.244 7.607 9.344 9.344 0 0 0 9.235-6.894v-.001l3.15-1.9A9.345 9.345 0 0 0 12.19 2.38zm-.358 4.146c1.331 0 2.7.28 3.961 1.09a7.19 7.19 0 0 1 2.205 2.275l-7.537 4.56-7.889-4.757c.324-3.037 2.684-3.168 3.01-3.168h6.25zm-6.3 9.678l2.896-1.738 8.353 5.045c-.164.221-.338.434-.523.645a7.618 7.618 0 0 1-5.93 2.87c-1.955 0-3.913-.574-5.542-2.312-2.027-2.186-2.314-5.176.746-4.51zm10.903-7.088c.24.376.48.766.694 1.193l-7.902 4.768-3.115-1.875 10.323-4.086z"/>
</svg>
